
<svg
   width="124.84947mm"
   height="45.207703mm"
   viewBox="0 0 124.84947 45.207703"
   version="1.1"
   id="svg1"
   xmlns="http://www.w3.org/2000/svg"
   xmlns:svg="http://www.w3.org/2000/svg">
  <defs
     id="defs1" />
  <path
     style="font-weight:bold;font-size:15.3784px;line-height:1.3;font-family:Futura;-inkscape-font-specification:'Futura, Bold';fill:#f5f3ee;stroke-width:0.305521"
     d="m 94.631203,19.440326 h 2.965593 v 8.359054 h -2.965593 v -0.92879 q -0.945084,1.189508 -2.558232,1.189508 -0.912487,0 -1.678334,-0.325896 -0.76583,-0.34219 -1.336135,-0.945076 -0.570313,-0.602894 -0.896201,-1.417623 -0.309594,-0.814721 -0.309594,-1.7761 0,-0.896185 0.309594,-1.694612 0.309586,-0.814721 0.863612,-1.417614 0.554003,-0.602894 1.319848,-0.945085 0.765832,-0.358469 1.694622,-0.358469 1.564272,0 2.59082,1.091726 z"
     id="path35-7-6-3-5" />
  <path
     style="font-weight:bold;font-size:15.3784px;line-height:1.3;font-family:Futura;-inkscape-font-specification:'Futura, Bold';fill:#05334a;fill-opacity:1;stroke-width:0.305521"
     d="m 90.916058,23.595403 q 0,0.407369 0.146652,0.765846 0.146649,0.342191 0.391066,0.602894 0.260687,0.260718 0.602893,0.40736 0.358485,0.146658 0.765846,0.146658 0.391066,0 0.733241,-0.146658 0.358485,-0.146642 0.602894,-0.40736 0.260726,-0.260703 0.40736,-0.602894 0.162937,-0.342183 0.162937,-0.733249 0,-0.391066 -0.162937,-0.733257 -0.146649,-0.358462 -0.40736,-0.61918 -0.244409,-0.260711 -0.602894,-0.407361 -0.342198,-0.146649 -0.733241,-0.146649 -0.407361,0 -0.765846,0.146649 -0.342198,0.14665 -0.602893,0.407361 -0.244409,0.260711 -0.391066,0.602901 -0.146652,0.325881 -0.146652,0.716939 z"
     id="path34-6-7-0-8" />
  <path
     style="font-weight:bold;font-size:15.3784px;line-height:1.3;font-family:Futura;-inkscape-font-specification:'Futura, Bold';fill:#f5f3ee;fill-opacity:1;stroke-width:0.305521"
     d="m 86.50027,22.145215 q -0.76583,-0.521429 -1.54797,-0.521429 -0.423663,0 -0.798427,0.146642 -0.358485,0.146658 -0.63549,0.423663 -0.277013,0.260718 -0.439942,0.635482 -0.14665,0.35847 -0.14665,0.814721 0,0.439965 0.14665,0.814722 0.162937,0.358492 0.423647,0.635497 0.277013,0.260703 0.651785,0.407361 0.374764,0.146642 0.798427,0.146642 0.831015,0 1.54797,-0.570305 v 2.509334 q -1.091727,0.472546 -2.0694,0.472546 -0.912487,0 -1.743511,-0.309587 -0.814713,-0.309594 -1.450188,-0.879906 -0.619195,-0.586599 -0.993967,-1.385026 -0.374772,-0.814721 -0.374772,-1.808681 0,-0.993967 0.358477,-1.808696 0.358485,-0.831008 0.977666,-1.417615 0.619188,-0.602894 1.466506,-0.928782 0.863596,-0.342183 1.841269,-0.342183 1.075432,0 1.98792,0.456244 z"
     id="path33-8-8-0-1" />
  <path
     style="font-weight:bold;font-size:15.3784px;line-height:1.3;font-family:Futura;-inkscape-font-specification:'Futura, Bold';fill:#f5f3ee;fill-opacity:1;stroke-width:0.305521"
     d="m 75.028998,16.230325 q 0,-0.342183 0.130371,-0.635483 0.130363,-0.309602 0.358477,-0.537724 0.228122,-0.228114 0.521422,-0.358469 0.309594,-0.130363 0.651784,-0.130363 0.342197,0 0.635489,0.130363 0.309586,0.130355 0.537708,0.358469 0.228122,0.22813 0.358485,0.537724 0.130363,0.293292 0.130363,0.635483 0,0.342175 -0.130363,0.651769 -0.130363,0.293307 -0.358485,0.521429 -0.228122,0.228122 -0.537708,0.358477 -0.2933,0.130356 -0.635489,0.130356 -0.34219,0 -0.651784,-0.130356 -0.2933,-0.130355 -0.521422,-0.358477 -0.228114,-0.228114 -0.358477,-0.521429 -0.130371,-0.309594 -0.130371,-0.651769 z"
     id="path32-6-0-3-4" />
  <path
     style="font-weight:bold;font-size:15.3784px;line-height:1.3;font-family:Futura;-inkscape-font-specification:'Futura, Bold';fill:#f5f3ee;fill-opacity:1;stroke-width:0.305521"
     d="M 78.173828,19.440326 V 27.79938 H 75.224539 V 19.440326 Z"
     id="path31-7-6-8-7" />
  <path
     style="font-weight:bold;font-size:15.3784px;line-height:1.3;font-family:Futura;-inkscape-font-specification:'Futura, Bold';fill:#f5f3ee;fill-opacity:1;stroke-width:0.305521"
     d="M 72.210078,21.900791 V 27.79938 H 69.26078 v -5.898589 h -0.977665 v -2.460465 h 0.977665 v -2.509341 h 2.949298 v 2.509341 h 1.678334 v 2.460465 z"
     id="path30-1-5-3-1" />
  <path
     style="font-weight:bold;font-size:15.3784px;line-height:1.3;font-family:Futura;-inkscape-font-specification:'Futura, Bold';fill:#f9f9f9;fill-opacity:1;stroke-width:0.305521"
     d="m 68.23532,17.02981 -2.835237,2.509341 -1.368731,-1.010254 2.33011,-2.851532 z"
     id="path29-8-7-6-3" />
  <path
     style="font-weight:bold;font-size:15.3784px;line-height:1.3;font-family:Futura;-inkscape-font-specification:'Futura, Bold';fill:#f5f3ee;fill-opacity:1;stroke-width:0.305521"
     d="m 66.866589,20.761233 v 8.359069 h -2.949298 v -8.359069 z"
     id="path28-4-3-0-8" />
  <path
     style="font-weight:bold;font-size:15.3784px;line-height:1.3;font-family:Futura;-inkscape-font-specification:'Futura, Bold';fill:#f5f3ee;fill-opacity:1;stroke-width:0.305521"
     d="m 56.371924,19.440326 h 2.949296 v 1.368739 q 0.47253,-0.749551 1.156905,-1.14061 0.684366,-0.407368 1.596854,-0.407368 0.114084,0 0.244408,0 0.14665,0 0.325912,0.03267 V 22.1127 q -0.586599,-0.2933 -1.270965,-0.2933 -1.02655,0 -1.547979,0.619188 -0.50512,0.602894 -0.50512,1.7761 v 3.584773 h -2.949296 z"
     id="path27-9-4-4-4" />
  <path
     style="font-weight:bold;font-size:15.3784px;line-height:1.3;font-family:Futura;-inkscape-font-specification:'Futura, Bold';fill:#f5f3ee;fill-opacity:1;stroke-width:0.305521"
     d="m 54.693602,22.145215 q -0.765846,-0.521429 -1.547975,-0.521429 -0.423658,0 -0.798427,0.146642 -0.358483,0.146658 -0.635486,0.423663 -0.277015,0.260718 -0.439955,0.635482 -0.14665,0.35847 -0.14665,0.814721 0,0.439965 0.14665,0.814722 0.162937,0.358492 0.423658,0.635497 0.277014,0.260703 0.651783,0.407361 0.374769,0.146642 0.798427,0.146642 0.831018,0 1.547975,-0.570305 v 2.509334 q -1.091734,0.472546 -2.069398,0.472546 -0.91249,0 -1.743507,-0.309587 -0.814725,-0.309594 -1.450211,-0.879906 -0.619189,-0.586599 -0.993958,-1.385026 -0.374779,-0.814721 -0.374779,-1.808681 0,-0.993967 0.358482,-1.808696 0.358483,-0.831008 0.977664,-1.417615 0.6192,-0.602894 1.466504,-0.928782 0.863612,-0.342183 1.841273,-0.342183 1.075441,0 1.98793,0.456244 z"
     id="path26-7-3-0-8" />
  <path
     style="font-weight:bold;font-size:15.3784px;line-height:1.3;font-family:Futura;-inkscape-font-specification:'Futura, Bold';fill:#f5f3ee;fill-opacity:1;stroke-width:0.305521"
     d="m 37.877777,19.440326 h 2.965592 v 8.359054 h -2.965592 v -0.92879 q -0.94508,1.189508 -2.558227,1.189508 -0.91249,0 -1.678337,-0.325896 -0.765831,-0.34219 -1.336147,-0.945076 -0.5703,-0.602894 -0.896192,-1.417623 -0.309587,-0.814721 -0.309587,-1.7761 0,-0.896185 0.309587,-1.694612 0.309588,-0.814721 0.863613,-1.417614 0.554006,-0.602894 1.319849,-0.945085 0.765836,-0.358469 1.694619,-0.358469 1.564273,0 2.590822,1.091726 z"
     id="path25-3-0-9-0" />
  <path
     style="font-weight:bold;font-size:15.3784px;line-height:1.3;font-family:Futura;-inkscape-font-specification:'Futura, Bold';fill:#05334a;fill-opacity:1;stroke-width:0.305521"
     d="m 34.162636,23.595403 q 0,0.407369 0.146651,0.765846 0.146651,0.342191 0.391063,0.602894 0.260692,0.260718 0.602895,0.40736 0.358483,0.146658 0.765832,0.146658 0.391078,0 0.733256,-0.146658 0.358483,-0.146642 0.602891,-0.40736 0.260728,-0.260703 0.407364,-0.602894 0.162937,-0.342183 0.162937,-0.733249 0,-0.391066 -0.162937,-0.733257 -0.146651,-0.358462 -0.407364,-0.61918 -0.244405,-0.260711 -0.602891,-0.407361 -0.342197,-0.146649 -0.733256,-0.146649 -0.40736,0 -0.765832,0.146649 -0.342197,0.14665 -0.602895,0.407361 -0.244405,0.260711 -0.391063,0.602901 -0.146651,0.325881 -0.146651,0.716939 z"
     id="path24-1-4-2-4" />
  <path
     style="font-weight:bold;font-size:15.3784px;line-height:1.3;font-family:Futura;-inkscape-font-specification:'Futura, Bold';fill:#f5f3ee;fill-opacity:1;stroke-width:0.305521"
     d="M 29.404682,14.274986 V 27.79938 H 26.455385 V 14.274986 Z"
     id="text1-39-0-8-4-6" />
  <text
     xml:space="preserve"
     style="font-style:normal;font-variant:normal;font-weight:bold;font-stretch:normal;font-size:5.43916px;line-height:1.3;font-family:Futura;-inkscape-font-specification:'Futura, Bold';font-variant-ligatures:normal;font-variant-caps:normal;font-variant-numeric:normal;font-variant-east-asian:normal;text-align:start;writing-mode:lr-tb;direction:ltr;text-anchor:start;fill:#f5f3ee;fill-opacity:1;stroke-width:0.101984"
     x="69.310478"
     y="32.123619"
     id="text4-52-2-7-9-0"><tspan
       id="tspan4-2-3-5-2-3"
       style="font-style:normal;font-variant:normal;font-weight:300;font-stretch:normal;font-size:5.43916px;font-family:'Futura Std';-inkscape-font-specification:'Futura Std, Light';font-variant-ligatures:normal;font-variant-caps:normal;font-variant-numeric:normal;font-variant-east-asian:normal;fill:#f5f3ee;fill-opacity:1;stroke-width:0.101984"
       x="69.310478"
       y="32.123619">del derecho</tspan></text>
  <rect
     style="fill:#f5f3ee;fill-opacity:1;stroke-width:0.0578582"
     id="rect5-7-7-9-9-2"
     width="70.226128"
     height="0.25483531"
     x="26.601242"
     y="23.555012" />
</svg>
